<svg width="70" height="70" viewBox="0 0 70 70" fill="none" xmlns="http://www.w3.org/2000/svg">
<mask id="mask0_86_414" style="mask-type:alpha" maskUnits="userSpaceOnUse" x="0" y="0" width="70" height="70">
<rect width="70" height="70" fill="#D9D9D9"/>
</mask>
<g mask="url(#mask0_86_414)">
<path d="M20.4167 64.1666C18.8126 64.1666 17.4393 63.5954 16.297 62.453C15.1546 61.3107 14.5834 59.9374 14.5834 58.3332C14.5834 56.7291 15.1546 55.3558 16.297 54.2135C17.4393 53.0711 18.8126 52.4999 20.4167 52.4999C22.0209 52.4999 23.3942 53.0711 24.5365 54.2135C25.6789 55.3558 26.2501 56.7291 26.2501 58.3332C26.2501 59.9374 25.6789 61.3107 24.5365 62.453C23.3942 63.5954 22.0209 64.1666 20.4167 64.1666ZM49.5834 64.1666C47.9792 64.1666 46.606 63.5954 45.4636 62.453C44.3213 61.3107 43.7501 59.9374 43.7501 58.3332C43.7501 56.7291 44.3213 55.3558 45.4636 54.2135C46.606 53.0711 47.9792 52.4999 49.5834 52.4999C51.1876 52.4999 52.5608 53.0711 53.7032 54.2135C54.8456 55.3558 55.4167 56.7291 55.4167 58.3332C55.4167 59.9374 54.8456 61.3107 53.7032 62.453C52.5608 63.5954 51.1876 64.1666 49.5834 64.1666ZM15.1667 11.6666H58.1876C59.3056 11.6666 60.1563 12.1648 60.7397 13.1614C61.323 14.1579 61.3473 15.1666 60.8126 16.1874L50.4584 34.8541C49.9237 35.8263 49.2067 36.5798 48.3074 37.1145C47.4081 37.6492 46.4237 37.9166 45.3542 37.9166H23.6251L20.4167 43.7499H55.4167V49.5832H20.4167C18.2292 49.5832 16.5765 48.6232 15.4584 46.703C14.3404 44.7829 14.2917 42.8749 15.3126 40.9791L19.2501 33.8333L8.75008 11.6666H2.91675V5.83325H12.3959L15.1667 11.6666Z" fill="white"/>
</g>
</svg>
