<svg width="80" height="80" viewBox="0 0 80 80" fill="none" xmlns="http://www.w3.org/2000/svg">
<mask id="mask0_86_432" style="mask-type:alpha" maskUnits="userSpaceOnUse" x="0" y="0" width="80" height="80">
<rect width="80" height="80" fill="#D9D9D9"/>
</mask>
<g mask="url(#mask0_86_432)">
<path d="M40.0001 70C33.5001 70 27.9862 67.7361 23.4584 63.2083C18.9306 58.6805 16.6667 53.1666 16.6667 46.6666C16.6667 41.4444 18.2084 36.7639 21.2917 32.625C24.3751 28.4861 28.4167 25.6944 33.4167 24.25C31.5834 23.8055 29.9862 23.0139 28.6251 21.875C27.264 20.7361 26.1667 19.3611 25.3334 17.75C24.5001 16.1389 23.9167 14.3889 23.5834 12.5C23.2501 10.6111 23.1945 8.69442 23.4167 6.74997C25.6945 6.4722 27.8612 6.61108 29.9167 7.16664C31.9723 7.7222 33.8334 8.61108 35.5001 9.83331C37.1667 11.0555 38.5417 12.5278 39.6251 14.25C40.7084 15.9722 41.3612 17.9166 41.5834 20.0833C42.3056 18.3611 43.1806 16.7361 44.2084 15.2083C45.2362 13.6805 46.389 12.2778 47.6667 11C48.2779 10.3889 49.0556 10.0833 50.0001 10.0833C50.9445 10.0833 51.7223 10.3889 52.3334 11C52.9445 11.6111 53.2501 12.3889 53.2501 13.3333C53.2501 14.2778 52.9445 15.0555 52.3334 15.6666C51.1112 16.8889 50.0279 18.2361 49.0834 19.7083C48.139 21.1805 47.4445 22.75 47.0001 24.4166C51.889 25.9722 55.8334 28.7916 58.8334 32.875C61.8334 36.9583 63.3334 41.5555 63.3334 46.6666C63.3334 53.1666 61.0695 58.6805 56.5418 63.2083C52.014 67.7361 46.5001 70 40.0001 70Z" fill="white"/>
</g>
</svg>
