<svg width="74" height="64" viewBox="0 0 74 64" fill="none" xmlns="http://www.w3.org/2000/svg">
<path d="M48.2591 0C49.4941 0 50.639 0.663746 51.2766 1.74902L73.4944 39.5615C74.1692 40.71 74.1685 42.1476 73.4934 43.2959L62.3489 62.252C61.7112 63.3366 60.5668 63.9999 59.3323 64H14.5745C13.3354 64 12.1874 63.332 11.551 62.2412L0.500267 43.2939C-0.169045 42.1463 -0.166729 40.7132 0.507103 39.5684L22.7718 1.74609C23.4097 0.662475 24.5536 0.000171102 25.7874 0H48.2591ZM51.4534 33.4365C48.4548 33.301 45.1412 33.9475 43.1702 36.1865C42.1848 37.3059 41.4143 38.5908 41.5315 40.1211C41.6552 41.5624 41.8753 43.0111 42.9593 44.1367C43.7708 45.0031 44.664 45.6371 45.9016 45.9688C46.7598 46.1823 47.5777 46.513 48.4358 46.7266C49.1051 46.8663 49.8129 46.919 50.4885 46.9697C51.486 47.0446 52.1988 47.486 52.8343 48.1006C53.7487 48.8853 53.8571 50.5341 52.3479 51.2861C51.4455 51.6956 50.5365 51.7467 49.5393 51.6719C47.1584 51.4932 46.0974 50.4887 44.6546 48.9482C44.1716 48.4645 43.7245 47.9237 43.2737 47.4424C42.7852 47.4952 42.7019 47.7577 42.5501 48.0742C42.0556 49.1112 41.6225 50.1836 41.0637 51.2158C40.8007 51.7329 40.8638 52.215 41.2503 52.6914C41.4606 52.916 41.577 53.1035 41.7874 53.3281C43.5672 55.1325 46.5748 56.0451 49.1487 56.2383C51.7226 56.4314 54.8218 56.0672 56.9846 54.7676C58.575 53.783 59.2948 52.3151 59.512 50.6309C59.7418 48.7684 59.2141 47.0871 57.9622 45.5908C56.7941 44.28 55.3238 43.573 53.7083 43.0938C52.4706 42.7623 51.1495 42.6931 49.8733 42.4482C49.3649 42.3206 48.888 42.1951 48.4202 41.9512C47.6392 41.5643 47.2139 40.2795 47.5198 39.6162C48.0955 38.3466 49.3775 38.0544 50.761 38.1582C52.5305 38.291 55.2648 39.7459 56.1028 41.1514C56.5939 41.0689 56.8921 40.972 57.0784 40.6279L58.9202 37.4844C59.0978 37.2591 59.0501 37.0169 58.8421 36.7627C58.4298 36.1948 57.9124 35.7381 57.2581 35.3906C56.477 35.0038 55.7275 34.6192 54.8821 34.2275C53.9765 33.7717 52.5152 33.5162 51.4534 33.4365ZM17.6839 34.248C17.6414 34.2481 17.6007 34.2656 17.5706 34.2959C16.7045 35.1678 15.9809 36.2107 15.3997 37.4248C14.4203 39.4452 13.93 41.8876 13.93 44.752C13.93 47.6163 14.4203 50.0712 15.3997 52.1172C15.9933 53.3417 16.7355 54.3926 17.6262 55.2695C17.6563 55.299 17.6967 55.3154 17.7385 55.3154H23.3118C23.5079 55.3149 23.5988 54.8178 23.4309 54.7148C23.169 54.5542 22.6969 54.3662 22.4573 54.1504C21.5206 53.3064 20.7973 52.0913 20.2864 50.5059C19.7967 48.9203 19.5511 47.0024 19.551 44.752C19.551 42.4758 19.7967 40.5446 20.2864 38.959C20.7973 37.3737 21.5207 36.1719 22.4573 35.3535C22.7218 35.1152 23.2213 34.9103 23.513 34.7393C23.6782 34.6423 23.6043 34.248 23.4134 34.248H17.6839ZM27.2132 34.248C27.0218 34.248 26.9474 34.6483 27.1126 34.7461C27.399 34.9157 27.67 35.1184 27.9251 35.3535C28.8614 36.1719 29.5742 37.3736 30.0637 38.959C30.5533 40.5446 30.7981 42.4758 30.7981 44.752C30.7981 47.0024 30.5533 48.9203 30.0637 50.5059C29.5742 52.0914 28.8615 53.3064 27.9251 54.1504C27.6963 54.3614 27.4545 54.5459 27.2005 54.7041C27.0329 54.8085 27.1258 55.3154 27.3225 55.3154H32.6223C32.6645 55.3154 32.7055 55.2985 32.7356 55.2686C33.6179 54.3918 34.3563 53.3413 34.9495 52.1172C35.9498 50.0713 36.4495 47.6161 36.4495 44.752C36.4495 41.8877 35.9498 39.4452 34.9495 37.4248C34.3685 36.2109 33.6485 35.1677 32.7903 34.2959C32.7601 34.2652 32.7188 34.248 32.676 34.248H27.2132ZM34.0169 9.0332C33.1391 9.0332 32.2325 9.09065 31.2981 9.11914C30.9303 9.1192 30.6474 9.20433 30.3362 9.57422V11.0273C30.4212 12.1954 30.5061 13.3925 30.5344 14.5605C30.5911 16.4406 30.6184 18.3209 30.6184 20.2295C30.6184 22.1667 30.6194 24.0472 30.5911 25.9844L30.4778 29.4316C30.4779 29.6877 30.5336 29.9156 30.6184 30.2285C32.1475 30.2855 33.6773 30.3145 35.2063 30.3145C35.5743 30.0011 35.6028 29.8016 35.6311 29.4883L35.7444 26.8672L35.8294 23.7334C35.8577 23.3062 35.8294 22.936 35.8577 22.5088C35.8577 22.1955 35.886 21.8819 35.9143 21.5117H37.301C38.4337 24.2751 39.9067 27.4655 41.0393 30.1719C41.0676 30.314 41.1518 30.3709 41.2366 30.3711C41.8029 30.3711 44.6069 30.2002 45.9661 30.2002H46.2493C46.3906 30.2285 46.5039 30.115 46.4759 29.916C46.4475 29.7166 46.3342 29.5734 46.221 29.374C45.9095 28.7758 45.2864 27.7506 44.9749 27.1523C44.4086 26.0414 43.8419 24.9303 43.304 23.8193C42.8792 22.9077 42.2317 21.967 41.9768 20.9414C43.0811 20.4856 44.4116 19.9441 44.9778 18.8047C45.8555 17.1239 46.2521 15.3859 45.8274 13.5342C44.9212 9.54598 40.9254 9.0332 37.4993 9.0332H34.0169ZM36.2542 13.25C37.1884 13.25 37.9556 13.278 38.8899 13.335C39.9092 13.4204 40.5041 13.9901 40.6741 15.0439C40.7874 15.7277 40.1925 16.6397 39.428 16.9531C39.2015 17.0956 38.9748 17.1523 38.7766 17.1523C37.729 17.1808 36.8202 17.1807 35.6594 17.1807V13.3916C35.8858 13.3062 36.0561 13.25 36.2542 13.25Z" fill="#0A5445"/>
</svg>
