<svg width="80" height="80" viewBox="0 0 80 80" fill="none" xmlns="http://www.w3.org/2000/svg">
<mask id="mask0_209_112" style="mask-type:alpha" maskUnits="userSpaceOnUse" x="0" y="0" width="80" height="80">
<rect width="80" height="80" fill="#D9D9D9"/>
</mask>
<g mask="url(#mask0_209_112)">
<path d="M39.9998 70C33.4998 70 27.9859 67.7361 23.4582 63.2083C18.9304 58.6805 16.6665 53.1666 16.6665 46.6666C16.6665 41.4444 18.2082 36.7639 21.2915 32.625C24.3748 28.4861 28.4165 25.6944 33.4165 24.25C31.5832 23.8055 29.9859 23.0139 28.6248 21.875C27.2637 20.7361 26.1665 19.3611 25.3332 17.75C24.4998 16.1389 23.9165 14.3889 23.5832 12.5C23.2498 10.6111 23.1943 8.69442 23.4165 6.74997C25.6943 6.4722 27.8609 6.61108 29.9165 7.16664C31.9721 7.7222 33.8332 8.61108 35.4998 9.83331C37.1665 11.0555 38.5415 12.5278 39.6248 14.25C40.7082 15.9722 41.3609 17.9166 41.5832 20.0833C42.3054 18.3611 43.1804 16.7361 44.2082 15.2083C45.2359 13.6805 46.3887 12.2778 47.6665 11C48.2776 10.3889 49.0554 10.0833 49.9998 10.0833C50.9443 10.0833 51.7221 10.3889 52.3332 11C52.9443 11.6111 53.2498 12.3889 53.2498 13.3333C53.2498 14.2778 52.9443 15.0555 52.3332 15.6666C51.111 16.8889 50.0276 18.2361 49.0832 19.7083C48.1387 21.1805 47.4443 22.75 46.9998 24.4166C51.8887 25.9722 55.8332 28.7916 58.8332 32.875C61.8332 36.9583 63.3332 41.5555 63.3332 46.6666C63.3332 53.1666 61.0693 58.6805 56.5415 63.2083C52.0137 67.7361 46.4998 70 39.9998 70Z" fill="white"/>
</g>
</svg>
