<svg width="40" height="34" viewBox="0 0 40 34" fill="none" xmlns="http://www.w3.org/2000/svg">
<path d="M39.1602 5.08C35.7202 5.72 33.0402 7.24 31.1202 9.64C29.2802 12.04 28.2802 14.92 28.1202 18.28C28.6002 18.12 29.0802 18 29.5602 17.92C30.0402 17.76 30.5602 17.68 31.1202 17.68C33.4402 17.68 35.2402 18.44 36.5202 19.96C37.8002 21.4 38.4402 23.16 38.4402 25.24C38.4402 27.72 37.7202 29.72 36.2802 31.24C34.9202 32.68 33.0402 33.4 30.6402 33.4C28.3202 33.4 26.3602 32.56 24.7602 30.88C23.2402 29.2 22.4802 26.68 22.4802 23.32C22.4802 18.52 23.1602 14.52 24.5202 11.32C25.8802 8.12 27.8002 5.68 30.2802 4C32.8402 2.24 35.8002 1.16 39.1602 0.759997V5.08ZM17.5602 5.08C14.2002 5.72 11.5602 7.24 9.64016 9.64C7.80016 12.04 6.80016 14.92 6.64016 18.28C7.04016 18.12 7.48016 18 7.96016 17.92C8.52016 17.76 9.08016 17.68 9.64016 17.68C11.8802 17.68 13.6402 18.44 14.9202 19.96C16.2002 21.4 16.8402 23.16 16.8402 25.24C16.8402 27.72 16.1202 29.72 14.6802 31.24C13.3202 32.68 11.4402 33.4 9.04016 33.4C6.80016 33.4 4.88016 32.56 3.28016 30.88C1.68016 29.2 0.880156 26.68 0.880156 23.32C0.880156 18.52 1.56016 14.52 2.92016 11.32C4.28016 8.12 6.20016 5.68 8.68016 4C11.2402 2.24 14.2002 1.16 17.5602 0.759997V5.08Z" fill="white"/>
</svg>
