<svg width="39" height="33" viewBox="0 0 39 33" fill="none" xmlns="http://www.w3.org/2000/svg">
<path d="M0.634531 28.52C4.07453 27.88 6.71453 26.36 8.55453 23.96C10.4745 21.56 11.5145 18.68 11.6745 15.32C11.1945 15.4 10.7145 15.52 10.2345 15.68C9.75453 15.76 9.23453 15.8 8.67453 15.8C6.43453 15.8 4.63453 15.08 3.27453 13.64C1.99453 12.12 1.35453 10.36 1.35453 8.36C1.35453 5.87999 2.03453 3.92 3.39453 2.48C4.83453 0.959995 6.75453 0.199993 9.15453 0.199993C11.4745 0.199993 13.3945 1.03999 14.9145 2.72C16.5145 4.4 17.3145 6.92 17.3145 10.28C17.3145 15.08 16.6345 19.08 15.2745 22.28C13.9145 25.48 11.9545 27.96 9.39453 29.72C6.91453 31.4 3.99453 32.44 0.634531 32.84V28.52ZM22.2345 28.52C25.5945 27.88 28.1945 26.36 30.0345 23.96C31.9545 21.56 32.9945 18.68 33.1545 15.32C32.7545 15.4 32.2745 15.52 31.7145 15.68C31.2345 15.76 30.7145 15.8 30.1545 15.8C27.9145 15.8 26.1545 15.08 24.8745 13.64C23.5945 12.12 22.9545 10.36 22.9545 8.36C22.9545 5.87999 23.6345 3.92 24.9945 2.48C26.4345 0.959995 28.3545 0.199993 30.7545 0.199993C33.0745 0.199993 34.9945 1.03999 36.5145 2.72C38.1145 4.4 38.9145 6.92 38.9145 10.28C38.9145 15.08 38.2345 19.08 36.8745 22.28C35.5145 25.48 33.5545 27.96 30.9945 29.72C28.5145 31.4 25.5945 32.44 22.2345 32.84V28.52Z" fill="white"/>
</svg>
