<svg width="70" height="70" viewBox="0 0 70 70" fill="none" xmlns="http://www.w3.org/2000/svg">
<mask id="mask0_209_100" style="mask-type:alpha" maskUnits="userSpaceOnUse" x="0" y="0" width="70" height="70">
<rect width="70" height="70" fill="#D9D9D9"/>
</mask>
<g mask="url(#mask0_209_100)">
<path d="M20.417 64.1666C18.8128 64.1666 17.4396 63.5954 16.2972 62.453C15.1548 61.3107 14.5837 59.9374 14.5837 58.3332C14.5837 56.7291 15.1548 55.3558 16.2972 54.2135C17.4396 53.0711 18.8128 52.4999 20.417 52.4999C22.0212 52.4999 23.3944 53.0711 24.5368 54.2135C25.6791 55.3558 26.2503 56.7291 26.2503 58.3332C26.2503 59.9374 25.6791 61.3107 24.5368 62.453C23.3944 63.5954 22.0212 64.1666 20.417 64.1666ZM49.5837 64.1666C47.9795 64.1666 46.6062 63.5954 45.4639 62.453C44.3215 61.3107 43.7503 59.9374 43.7503 58.3332C43.7503 56.7291 44.3215 55.3558 45.4639 54.2135C46.6062 53.0711 47.9795 52.4999 49.5837 52.4999C51.1878 52.4999 52.5611 53.0711 53.7035 54.2135C54.8458 55.3558 55.417 56.7291 55.417 58.3332C55.417 59.9374 54.8458 61.3107 53.7035 62.453C52.5611 63.5954 51.1878 64.1666 49.5837 64.1666ZM15.167 11.6666H58.1878C59.3059 11.6666 60.1566 12.1648 60.7399 13.1614C61.3232 14.1579 61.3475 15.1666 60.8128 16.1874L50.4587 34.8541C49.9239 35.8263 49.2069 36.5798 48.3076 37.1145C47.4083 37.6492 46.4239 37.9166 45.3545 37.9166H23.6253L20.417 43.7499H55.417V49.5832H20.417C18.2295 49.5832 16.5767 48.6232 15.4587 46.703C14.3406 44.7829 14.292 42.8749 15.3128 40.9791L19.2503 33.8333L8.75033 11.6666H2.91699V5.83325H12.3962L15.167 11.6666Z" fill="white"/>
</g>
</svg>
