<svg width="80" height="80" viewBox="0 0 80 80" fill="none" xmlns="http://www.w3.org/2000/svg">
<mask id="mask0_209_94" style="mask-type:alpha" maskUnits="userSpaceOnUse" x="0" y="0" width="80" height="80">
<rect width="80" height="80" fill="#D9D9D9"/>
</mask>
<g mask="url(#mask0_209_94)">
<path d="M20.0002 66.6666C15.3891 66.6666 11.4585 65.0416 8.2085 61.7916C4.9585 58.5416 3.3335 54.611 3.3335 49.9999C3.3335 45.3888 4.9585 41.4583 8.2085 38.2083C11.4585 34.9583 15.3891 33.3333 20.0002 33.3333C24.6113 33.3333 28.5418 34.9583 31.7918 38.2083C35.0418 41.4583 36.6668 45.3888 36.6668 49.9999C36.6668 54.611 35.0418 58.5416 31.7918 61.7916C28.5418 65.0416 24.6113 66.6666 20.0002 66.6666ZM20.0002 54.9999C18.6113 54.9999 17.4307 54.5138 16.4585 53.5416C15.4863 52.5694 15.0002 51.3888 15.0002 49.9999C15.0002 48.611 15.4863 47.4305 16.4585 46.4583C17.4307 45.486 18.6113 44.9999 20.0002 44.9999C21.3891 44.9999 22.5696 45.486 23.5418 46.4583C24.5141 47.4305 25.0002 48.611 25.0002 49.9999C25.0002 51.3888 24.5141 52.5694 23.5418 53.5416C22.5696 54.5138 21.3891 54.9999 20.0002 54.9999ZM65.0002 66.6666C61.7779 66.6666 59.0279 65.5277 56.7502 63.2499C54.4724 60.9721 53.3335 58.2221 53.3335 54.9999C53.3335 51.7777 54.4724 49.0277 56.7502 46.7499C59.0279 44.4721 61.7779 43.3333 65.0002 43.3333C68.2224 43.3333 70.9724 44.4721 73.2502 46.7499C75.5279 49.0277 76.6668 51.7777 76.6668 54.9999C76.6668 58.2221 75.5279 60.9721 73.2502 63.2499C70.9724 65.5277 68.2224 66.6666 65.0002 66.6666ZM13.3335 29.9999C12.3891 29.9999 11.5974 29.6805 10.9585 29.0416C10.3196 28.4027 10.0002 27.611 10.0002 26.6666C10.0002 25.7221 10.3196 24.9305 10.9585 24.2916C11.5974 23.6527 12.3891 23.3333 13.3335 23.3333H23.3335C25.1668 23.3333 26.7363 23.986 28.0418 25.2916C29.3474 26.5971 30.0002 28.1666 30.0002 29.9999H13.3335ZM20.0002 59.9999C22.7779 59.9999 25.1391 59.0277 27.0835 57.0833C29.0279 55.1388 30.0002 52.7777 30.0002 49.9999C30.0002 47.2221 29.0279 44.861 27.0835 42.9166C25.1391 40.9721 22.7779 39.9999 20.0002 39.9999C17.2224 39.9999 14.8613 40.9721 12.9168 42.9166C10.9724 44.861 10.0002 47.2221 10.0002 49.9999C10.0002 52.7777 10.9724 55.1388 12.9168 57.0833C14.8613 59.0277 17.2224 59.9999 20.0002 59.9999ZM65.0002 59.9999C66.3891 59.9999 67.5696 59.5138 68.5418 58.5416C69.5141 57.5694 70.0002 56.3888 70.0002 54.9999C70.0002 53.611 69.5141 52.4305 68.5418 51.4583C67.5696 50.486 66.3891 49.9999 65.0002 49.9999C63.6113 49.9999 62.4307 50.486 61.4585 51.4583C60.4863 52.4305 60.0002 53.611 60.0002 54.9999C60.0002 56.3888 60.4863 57.5694 61.4585 58.5416C62.4307 59.5138 63.6113 59.9999 65.0002 59.9999ZM39.6668 53.3333H50.1668C50.7224 49.3333 52.4585 46.1388 55.3752 43.7499C58.2918 41.361 61.5835 40.1666 65.2502 40.1666C66.6391 40.1666 68.0141 40.361 69.3752 40.7499C70.7363 41.1388 72.0557 41.7221 73.3335 42.4999V26.6666C73.3335 24.8333 72.6807 23.2638 71.3752 21.9583C70.0696 20.6527 68.5002 19.9999 66.6668 19.9999H45.6668L42.1668 16.3333L46.8335 11.6666L44.5002 9.33325L32.6668 21.1666L35.1668 23.4999L39.8335 18.8333L43.3335 22.3333V29.9999C43.3335 31.8333 42.6807 33.4027 41.3752 34.7083C40.0696 36.0138 38.5002 36.6666 36.6668 36.6666H34.8335C36.5002 38.4999 37.7641 40.5555 38.6252 42.8333C39.4863 45.111 39.9168 47.4999 39.9168 49.9999C39.9168 50.5555 39.9029 51.111 39.8752 51.6666C39.8474 52.2221 39.7779 52.7777 39.6668 53.3333Z" fill="white"/>
</g>
</svg>
