<svg width="80" height="80" viewBox="0 0 80 80" fill="none" xmlns="http://www.w3.org/2000/svg">
<mask id="mask0_86_405" style="mask-type:alpha" maskUnits="userSpaceOnUse" x="0" y="0" width="80" height="80">
<rect width="80" height="80" fill="#D9D9D9"/>
</mask>
<g mask="url(#mask0_86_405)">
<path d="M19.9999 66.6666C15.3888 66.6666 11.4583 65.0416 8.20825 61.7916C4.95825 58.5416 3.33325 54.611 3.33325 49.9999C3.33325 45.3888 4.95825 41.4583 8.20825 38.2083C11.4583 34.9583 15.3888 33.3333 19.9999 33.3333C24.611 33.3333 28.5416 34.9583 31.7916 38.2083C35.0416 41.4583 36.6666 45.3888 36.6666 49.9999C36.6666 54.611 35.0416 58.5416 31.7916 61.7916C28.5416 65.0416 24.611 66.6666 19.9999 66.6666ZM19.9999 54.9999C18.611 54.9999 17.4305 54.5138 16.4583 53.5416C15.486 52.5694 14.9999 51.3888 14.9999 49.9999C14.9999 48.611 15.486 47.4305 16.4583 46.4583C17.4305 45.486 18.611 44.9999 19.9999 44.9999C21.3888 44.9999 22.5694 45.486 23.5416 46.4583C24.5138 47.4305 24.9999 48.611 24.9999 49.9999C24.9999 51.3888 24.5138 52.5694 23.5416 53.5416C22.5694 54.5138 21.3888 54.9999 19.9999 54.9999ZM64.9999 66.6666C61.7777 66.6666 59.0277 65.5277 56.7499 63.2499C54.4721 60.9721 53.3333 58.2221 53.3333 54.9999C53.3333 51.7777 54.4721 49.0277 56.7499 46.7499C59.0277 44.4721 61.7777 43.3333 64.9999 43.3333C68.2221 43.3333 70.9721 44.4721 73.2499 46.7499C75.5277 49.0277 76.6666 51.7777 76.6666 54.9999C76.6666 58.2221 75.5277 60.9721 73.2499 63.2499C70.9721 65.5277 68.2221 66.6666 64.9999 66.6666ZM13.3333 29.9999C12.3888 29.9999 11.5971 29.6805 10.9583 29.0416C10.3194 28.4027 9.99992 27.611 9.99992 26.6666C9.99992 25.7221 10.3194 24.9305 10.9583 24.2916C11.5971 23.6527 12.3888 23.3333 13.3333 23.3333H23.3333C25.1666 23.3333 26.736 23.986 28.0416 25.2916C29.3471 26.5971 29.9999 28.1666 29.9999 29.9999H13.3333ZM19.9999 59.9999C22.7777 59.9999 25.1388 59.0277 27.0833 57.0833C29.0277 55.1388 29.9999 52.7777 29.9999 49.9999C29.9999 47.2221 29.0277 44.861 27.0833 42.9166C25.1388 40.9721 22.7777 39.9999 19.9999 39.9999C17.2221 39.9999 14.861 40.9721 12.9166 42.9166C10.9721 44.861 9.99992 47.2221 9.99992 49.9999C9.99992 52.7777 10.9721 55.1388 12.9166 57.0833C14.861 59.0277 17.2221 59.9999 19.9999 59.9999ZM64.9999 59.9999C66.3888 59.9999 67.5694 59.5138 68.5416 58.5416C69.5138 57.5694 69.9999 56.3888 69.9999 54.9999C69.9999 53.611 69.5138 52.4305 68.5416 51.4583C67.5694 50.486 66.3888 49.9999 64.9999 49.9999C63.611 49.9999 62.4305 50.486 61.4583 51.4583C60.486 52.4305 59.9999 53.611 59.9999 54.9999C59.9999 56.3888 60.486 57.5694 61.4583 58.5416C62.4305 59.5138 63.611 59.9999 64.9999 59.9999ZM39.6666 53.3333H50.1666C50.7221 49.3333 52.4583 46.1388 55.3749 43.7499C58.2916 41.361 61.5833 40.1666 65.2499 40.1666C66.6388 40.1666 68.0138 40.361 69.3749 40.7499C70.736 41.1388 72.0555 41.7221 73.3333 42.4999V26.6666C73.3333 24.8333 72.6805 23.2638 71.3749 21.9583C70.0694 20.6527 68.4999 19.9999 66.6666 19.9999H45.6666L42.1666 16.3333L46.8333 11.6666L44.4999 9.33325L32.6666 21.1666L35.1666 23.4999L39.8333 18.8333L43.3333 22.3333V29.9999C43.3333 31.8333 42.6805 33.4027 41.3749 34.7083C40.0694 36.0138 38.4999 36.6666 36.6666 36.6666H34.8333C36.4999 38.4999 37.7638 40.5555 38.6249 42.8333C39.486 45.111 39.9166 47.4999 39.9166 49.9999C39.9166 50.5555 39.9027 51.111 39.8749 51.6666C39.8471 52.2221 39.7777 52.7777 39.6666 53.3333Z" fill="white"/>
</g>
</svg>
