<svg width="75" height="446" viewBox="0 0 75 446" fill="none" xmlns="http://www.w3.org/2000/svg">
<path d="M2.36331 0C-0.138768 0 -0.917986 8.26963 1.32219 10.4779C4.08899 13.2054 6.77776 16.2101 9.38848 19.4921C24.8405 38.4431 36.7267 65.2114 45.0469 99.797C53.605 134.383 57.884 175.364 57.884 222.742C57.884 270.119 53.605 311.101 45.0469 345.686C36.7267 380.272 24.8405 407.277 9.38848 426.702C6.82032 429.852 4.17664 432.74 1.45744 435.366C-0.805449 437.551 -0.0307061 446 2.48667 446H14.2466C14.6033 446 14.9548 445.828 15.2693 445.495C15.8074 444.924 16.3432 444.346 16.8767 443.758C34.9437 423.859 49.0882 395.196 59.3103 357.768C69.7701 320.339 75 275.331 75 222.742C75 169.679 69.7701 124.67 59.3103 87.7157C49.0882 50.2875 34.9437 21.6241 16.8767 1.72549C16.5067 1.31794 16.1356 0.914558 15.7633 0.515352C15.4464 0.175493 15.0915 0 14.7311 0L2.36331 0Z" fill="white"/>
</svg>
