<svg width="75" height="426" viewBox="0 0 75 426" fill="none" xmlns="http://www.w3.org/2000/svg">
<path d="M72.6367 0C75.1388 0 75.918 7.8988 73.6778 10.0081C70.911 12.6132 68.2222 15.4832 65.6115 18.618C50.1595 36.7192 38.2733 62.2871 29.9531 95.3218C21.395 128.356 17.116 167.5 17.116 212.753C17.116 258.006 21.395 297.15 29.9531 330.185C38.2733 363.219 50.1595 389.014 65.6115 407.567C68.1797 410.576 70.8234 413.334 73.5426 415.843C75.8054 417.93 75.0307 426 72.5133 426H60.7534C60.3967 426 60.0452 425.836 59.7307 425.517C59.1926 424.973 58.6568 424.42 58.1233 423.858C40.0563 404.852 25.9118 377.474 15.6897 341.724C5.22993 305.974 0 262.984 0 212.753C0 162.07 5.22993 119.08 15.6897 83.7823C25.9118 48.0324 40.0563 20.6544 58.1233 1.64812C58.4933 1.25884 58.8644 0.873547 59.2367 0.492242C59.5536 0.167623 59.9085 0 60.2689 0L72.6367 0Z" fill="white"/>
</svg>
