<svg width="480" height="99" viewBox="0 0 480 99" fill="none" xmlns="http://www.w3.org/2000/svg">
<path d="M163.537 39.3379C163.589 39.706 163.379 39.9164 163.116 39.8638H162.59C160.066 39.8638 154.859 40.1793 153.807 40.1793C153.65 40.1793 153.492 40.0741 153.439 39.8112C151.336 34.8151 148.706 28.9249 146.602 23.8236H144.025C143.973 24.5073 143.92 25.0858 143.92 25.6643C143.868 26.4531 143.92 27.1368 143.868 27.9257L143.71 33.7107L143.5 38.549C143.447 39.1275 143.394 39.4956 142.711 40.0741C139.871 40.0741 137.031 40.0215 134.191 39.9164C134.033 39.3379 133.928 38.9171 133.928 38.4438L134.138 32.0803C134.191 28.5042 134.191 25.0332 134.191 21.457C134.191 17.9334 134.138 14.4625 134.033 10.9915C133.981 8.83524 133.823 6.62643 133.665 4.47021V1.78809C134.244 1.10441 134.769 0.946633 135.453 0.946633C137.189 0.894043 138.872 0.78886 140.502 0.78886H146.865C153.229 0.78886 161.065 1.73549 162.748 9.0982C163.537 12.5166 162.8 15.7246 161.17 18.8275C160.118 20.9311 157.646 21.9303 155.595 22.7718C156.069 24.6651 156.858 26.4005 157.646 28.0834C158.646 30.1345 159.698 32.1855 160.749 34.2366C161.328 35.341 162.485 37.2342 163.063 38.3386C163.274 38.7068 163.484 38.9697 163.537 39.3379ZM143.552 8.83524V15.8298C145.708 15.8298 147.707 15.8298 149.653 15.7772C150.021 15.7772 150.442 15.672 150.862 15.4091C152.282 14.8306 153.387 13.1477 153.176 11.8855C152.861 9.93965 151.756 8.88783 149.863 8.73006C148.128 8.62488 146.392 8.57229 144.657 8.57229C144.288 8.57229 143.973 8.67747 143.552 8.83524Z" fill="white"/>
<path d="M168.819 3.52358C168.872 2.47176 169.713 1.63031 170.765 1.57772C175.393 1.157 179.916 1.10441 184.544 1.10441C186.174 1.10441 187.647 1.05181 189.172 1.20959C189.645 1.20959 190.066 1.26218 190.539 1.26218C192.38 1.26218 194.116 1.10441 195.956 1.10441C196.85 1.10441 197.692 1.73549 197.744 2.73472C197.902 3.9443 197.902 5.1013 197.902 6.31089C197.902 8.20415 197.797 9.30856 195.693 9.30856C192.538 9.25597 189.435 9.0982 186.28 9.0456C183.808 9.0456 181.389 9.0982 178.864 9.15079V15.4617C178.864 15.935 179.285 16.3031 179.758 16.3031L191.17 16.0928C191.433 16.0928 191.644 16.1979 191.802 16.4083C192.222 17.0394 191.907 17.7757 191.959 18.5645C192.117 19.9845 192.065 21.457 192.117 22.877C192.17 23.3503 192.222 23.8762 191.644 24.2969C190.855 24.2443 190.066 24.2443 189.277 24.2443C186.122 24.2443 182.966 24.4547 179.653 24.4547C179.075 24.4547 178.812 24.7176 178.812 25.2435C178.654 27.5049 178.812 29.0827 178.759 31.4493H185.596C188.962 31.3967 192.38 31.3441 195.746 31.3441C197.587 31.3441 197.955 31.607 198.007 33.4477C198.06 35.1832 197.902 36.9187 197.744 38.6542C197.692 39.443 197.218 39.8112 196.43 39.8638C191.644 40.2845 186.753 40.3897 181.757 40.3897C177.497 40.3897 173.29 40.3371 169.293 40.1793C169.03 40.1793 168.767 40.1793 168.609 40.1267C168.241 39.1275 168.399 37.5498 168.451 36.6557C168.451 31.3441 168.556 26.0324 168.609 20.7207C168.662 18.4068 168.556 16.0402 168.714 13.6736C168.872 10.7811 168.609 8.04638 168.767 5.15389C168.767 4.57539 168.819 4.10208 168.819 3.52358Z" fill="white"/>
<path d="M214.097 25.191L213.887 35.2884C213.834 36.2876 213.887 37.2868 213.834 38.286C213.782 39.9164 213.571 40.1793 211.941 40.1793L204.21 40.0215C203.579 39.443 203.632 38.812 203.632 38.2335C203.369 27.4524 203.632 13.7262 203.632 1.6829L204.368 1.05181C206.629 0.894043 208.733 0.78886 210.994 0.78886C214.202 0.78886 217.463 0.841453 220.671 0.999223C225.825 1.26218 230.716 3.10285 232.556 8.36193C233.24 10.413 233.714 12.5166 233.451 14.778C232.346 23.1925 225.404 25.0858 218.094 25.0858C216.884 25.0858 215.833 25.1384 214.623 24.9806C214.465 24.928 214.255 25.1384 214.097 25.191ZM213.992 16.8816C214.623 17.0394 215.938 17.0394 217.2 17.0394C218.462 17.0394 219.672 17.0394 220.145 16.8816C221.249 16.6187 222.144 15.9876 222.827 14.9884C223.616 13.7788 223.301 12.6218 223.143 11.4122C222.985 10.3078 222.354 9.57151 221.355 9.20338C220.776 8.94042 220.092 8.73006 219.461 8.73006C217.831 8.57229 216.148 8.62488 214.518 8.62488C214.255 8.62488 213.992 8.73006 213.624 8.88783C213.887 11.57 213.361 14.1995 213.992 16.8816Z" fill="white"/>
<path d="M239.267 0.73627H248.733C248.891 0.73627 248.943 0.894043 249.101 0.946633C248.943 2.78731 248.891 4.47021 248.838 6.15312C248.786 9.0982 248.733 11.9907 248.786 14.9358C248.943 18.1438 249.049 22.5088 249.259 25.7169C249.417 28.399 250.889 32.2907 254.045 32.2907C257.042 32.0278 256.99 27.8205 257.253 25.6643C258.094 18.3542 257.726 7.41529 257.726 6.57384C257.779 5.1013 257.726 3.9443 257.726 2.47176C257.726 1.89327 257.831 1.47254 257.884 0.78886C258.568 0.78886 259.199 0.841453 259.882 0.841453C261.723 0.841453 263.406 0.73627 265.247 0.73627C265.878 0.73627 266.561 0.78886 267.245 0.78886C267.298 1.36736 267.455 1.78809 267.455 2.36658C267.455 10.7811 267.981 24.7176 266.456 31.87C265.667 35.1832 264.142 37.1816 261.197 38.9171C258.936 40.2319 256.464 41.1259 253.94 41.1259C250.574 41.1259 248.365 40.9156 245.578 38.9697C243.737 37.7076 242.107 36.7083 241.055 34.7625C239.582 32.1855 238.951 29.3456 238.951 26.348C238.951 22.7718 239.004 18.1438 239.056 14.5676L239.267 3.9443C239.319 2.94508 239.267 1.94586 239.267 0.73627Z" fill="white"/>
<path d="M273.943 39.8112C273.943 36.0772 273.838 32.7114 273.996 29.293C274.154 25.9272 273.891 22.5088 274.101 19.0904C274.259 16.9868 274.154 13.358 274.154 11.2544C273.996 8.5197 273.943 5.78498 273.786 3.05026C273.733 2.2614 273.47 1.52513 274.259 0.73627H289.826C293.455 0.73627 296.189 1.73549 299.082 4.04949C300.291 5.04871 300.87 6.57384 301.133 8.09897C301.554 10.7285 301.343 14.2521 297.662 17.2498C297.294 17.5127 297.504 18.0386 297.767 18.3016C299.082 19.5112 301.974 22.4562 302.973 24.5599C304.499 27.8205 304.236 31.0285 302.237 34.1314C299.45 38.3386 295.295 40.2319 290.246 40.2319L277.467 39.8638H276.941C276.31 39.8638 275.626 39.9164 274.943 39.9164C274.574 39.9164 274.312 39.8638 273.943 39.8112ZM283.357 23.9814C283.094 26.7687 283.199 29.4508 283.41 32.2381C283.83 32.1855 284.304 32.1855 284.724 32.1855C285.934 32.1855 287.038 32.2907 288.143 32.2907C290.089 32.2907 291.719 31.9226 292.771 30.0819C293.823 28.4516 293.402 26.1376 291.772 25.1384C290.93 24.6651 290.036 24.2443 289.037 24.0866C287.564 23.8236 286.039 23.8762 284.514 23.8236C284.093 23.8236 283.725 23.8762 283.357 23.9814ZM283.357 15.8298C284.146 16.0928 284.777 16.1454 285.566 16.1454C287.249 16.1454 288.721 15.935 290.352 15.3565C291.614 14.778 292.192 13.6736 292.56 12.3588C292.929 10.6759 291.929 9.20338 290.246 8.83524C289.142 8.62488 287.985 8.5197 286.881 8.5197C285.776 8.5197 284.724 8.57229 283.515 8.73006L283.462 8.78265C283.41 8.78265 283.41 8.83524 283.357 8.83524L283.147 14.8832C283.147 15.2513 283.199 15.4617 283.357 15.8298Z" fill="white"/>
<path d="M319.523 30.8708C320.102 30.9233 320.68 30.9759 321.259 30.9759C322.679 30.9759 324.099 30.8182 325.518 30.8182C329.463 30.8182 333.46 30.713 337.457 30.5026C337.877 31.3441 337.982 39.0749 337.509 39.7586C332.881 39.8112 328.253 39.8638 323.625 40.0215H321.785C319.208 40.0215 316.683 39.969 314.001 39.969C312.529 39.969 311.056 39.9164 309.531 40.0741C309.531 38.812 309.478 37.4972 309.478 36.1824C309.531 31.1863 309.373 26.348 309.583 21.3518C309.741 17.7757 309.846 14.1469 309.794 10.5707C309.794 7.3627 309.741 4.20726 309.583 0.841453C310.583 0.78886 311.582 0.73627 312.581 0.73627C314.632 0.73627 316.578 0.841453 318.524 0.841453C319.313 1.31477 319.418 1.94586 319.418 2.73472C319.418 8.41452 319.418 13.8839 319.471 19.5637V30.1871C319.471 30.3448 319.471 30.5026 319.523 30.8708Z" fill="white"/>
<path d="M342.092 39.6008C341.934 26.6109 342.039 13.9891 342.513 0.999223H343.196C343.354 0.999223 343.564 0.946633 343.722 0.946633C344.353 0.946633 345.037 1.10441 345.668 1.10441C346.247 1.10441 346.667 0.999223 347.035 0.841453C347.088 0.78886 347.246 0.78886 347.404 0.78886C347.614 0.78886 347.877 0.841453 348.14 0.841453H350.401C351.821 0.841453 352.032 0.841453 352.032 2.52436C351.874 5.25907 351.926 7.99379 351.926 10.7285C351.769 18.5645 351.821 26.1902 351.821 34.0262V39.6008C351.453 40.0215 350.875 40.0741 350.296 40.0741H349.928C348.824 40.0741 347.667 40.0215 346.562 40.0215L342.776 39.8112C342.513 39.8112 342.302 39.6534 342.092 39.6008Z" fill="white"/>
<path d="M386.405 11.6226C386.247 11.9907 385.931 12.201 385.458 12.201C385.195 12.201 384.985 12.1485 384.827 11.9907C382.776 10.3604 379.305 8.30933 376.149 8.30933C375.781 8.30933 375.518 8.30933 375.15 8.36193C370.89 8.36193 367.104 12.6744 365.999 16.4609C365.947 16.6713 365.842 16.8816 365.842 17.092C365.842 19.3534 365.526 21.5622 366.105 23.7184C366.788 26.5057 368.208 28.9775 370.733 30.3974C372.415 31.2915 374.256 31.9226 376.202 31.9226C376.675 31.9226 377.201 31.9752 377.674 31.8174C379.094 31.607 380.462 31.1337 381.724 30.3449C382.723 29.6612 383.565 28.7671 384.459 27.9257C384.616 27.7679 384.722 27.5575 384.932 27.3998C385.142 27.242 385.3 27.1894 385.458 27.1894C385.668 27.1894 385.879 27.2946 386.036 27.5049C386.405 27.9783 386.668 28.399 386.878 28.9775C387.667 30.713 388.298 32.4485 388.982 34.184C389.56 35.4987 389.455 35.9195 388.245 36.7083C384.879 38.8645 381.461 40.2319 377.464 40.2319C377.096 40.2319 376.675 40.2319 376.255 40.1793C374.729 40.0215 373.152 40.1267 371.627 39.8638C368.944 39.3904 366.525 38.549 364.264 36.9187C359.11 33.027 357.427 27.1894 357.006 21.0363C356.586 16.6187 357.69 12.727 359.951 8.94042C361.161 6.99457 362.423 5.20648 364.474 3.9969C366.315 2.94508 367.945 1.52513 370.049 1.05181C372.31 0.63109 375.308 0 377.569 0C379.41 0 381.198 0.315543 383.039 0.73627C385.195 1.31477 386.72 2.57695 388.35 3.9969C389.034 4.57539 389.192 5.41684 388.824 6.20571C388.14 7.41529 387.088 10.0974 386.405 11.6226Z" fill="white"/>
<path d="M427.035 0.262953C431.874 0.262953 435.818 1.52513 439.762 4.41762C444.075 7.62566 445.547 11.6751 446.389 16.7239C446.757 19.0378 446.862 21.4044 446.284 23.7184C446.126 24.5599 446.231 25.4539 446.021 26.2428C445.389 29.1879 444.022 31.8174 442.181 34.184C438.868 38.4964 433.714 39.8112 428.56 40.3897C428.298 40.4423 427.982 40.4423 427.719 40.4423C426.299 40.4423 424.879 40.3371 423.564 39.969C415.097 38.4438 410.101 32.9218 409.312 24.5073C409.154 23.0873 408.944 21.72 408.944 20.3C408.892 16.6713 409.365 13.2529 411.206 9.93965C412.468 7.67825 413.993 5.73239 415.886 4.04949C419.41 0.946633 422.67 0.68368 427.035 0.262953ZM419.988 13.6736C418.779 15.8298 418.147 18.1964 418.147 20.7207C418.2 21.1941 418.147 21.7726 418.305 22.3511C419.147 27.1894 422.775 31.0285 427.877 31.0285C432.715 31.0285 436.344 27.4524 437.185 22.8244C437.553 20.7733 437.08 18.8275 437.028 16.7764C437.028 16.4083 436.817 15.9876 436.659 15.5669C435.134 12.0959 431.716 9.25597 427.824 9.25597C424.827 9.6241 421.618 10.9389 419.988 13.6736Z" fill="white"/>
<path d="M452.127 4.31244C452.179 3.26063 453.021 2.41917 454.073 2.2614C455.282 2.10363 456.334 2.05104 457.544 1.99845C460.226 1.94586 462.855 1.94586 465.538 1.94586C469.324 1.94586 473.005 1.89327 476.792 1.89327C477.476 1.89327 478.159 1.84068 478.79 1.99845C479.79 2.15622 480 2.36658 480 3.36581C480 4.99612 479.947 6.57384 479.947 8.20415V8.99301C479.947 9.57151 479.474 10.0448 478.896 10.0448H477.896C475.793 10.0448 473.689 9.83447 471.638 9.83447H463.066C462.592 9.83447 462.329 10.0974 462.277 10.5707C462.119 11.9907 461.961 14.6728 462.119 16.1454C462.172 16.6187 462.487 17.0394 463.066 16.9868L474.636 16.829C474.951 17.092 475.162 17.6179 475.214 18.4068C475.267 20.2474 475.425 21.9303 475.425 23.771V24.0866C475.267 24.6651 474.899 24.9806 474.32 24.9806C470.481 24.9806 466.642 25.0332 462.803 25.1384C462.382 25.1384 462.066 25.5065 462.066 25.9272C462.066 28.136 462.172 36.6557 462.014 39.706C461.961 40.0215 461.751 40.1793 461.488 40.1793L452.285 40.2319C451.969 40.2319 451.811 40.1267 451.811 39.8638C451.601 37.8127 451.811 35.7617 451.811 33.8684C451.759 31.8174 451.864 29.7138 451.917 27.6627C451.917 25.5591 451.917 23.4555 451.969 21.2992C451.969 18.8275 451.864 16.3557 452.022 13.884C452.179 12.5692 452.074 11.2544 452.074 9.93965C451.916 8.09897 452.074 6.2583 452.127 4.31244Z" fill="white"/>
<path d="M137.476 81.1129C138.395 82.0314 139.313 83.0723 140.293 83.9908C143.232 86.9299 145.375 88.8281 149.906 88.8281C151.805 88.8281 153.519 88.5831 155.172 87.6034C157.928 85.8277 157.499 82.46 155.662 80.9904C154.376 79.827 152.968 79.031 151.07 79.031C149.784 79.031 148.437 79.031 147.151 78.8473C145.498 78.5412 143.906 77.9901 142.252 77.684C139.864 77.1941 138.089 76.0307 136.436 74.3775C134.231 72.2344 133.619 69.2953 133.19 66.3562C132.762 63.2334 134.047 60.4779 135.762 58.0287C139.191 53.1302 145.375 51.2932 151.07 51.1095C153.09 51.1095 155.05 51.4769 156.826 52.2729C158.479 52.9465 159.948 53.62 161.479 54.2936C162.765 54.9059 163.806 55.7631 164.663 56.8653C165.092 57.3551 165.214 57.845 164.908 58.3348L161.847 65.0703C161.54 65.8051 160.989 66.05 160.071 66.2949C158.295 63.5395 153.764 60.9066 150.396 60.9066C147.763 60.9066 145.375 61.7026 144.457 64.3967C143.967 65.8051 144.947 68.3768 146.477 69.0503C147.396 69.479 148.314 69.6626 149.294 69.8463C151.743 70.1525 154.254 70.0913 156.642 70.5811C159.765 71.3159 162.643 72.5405 165.031 75.051C167.602 77.9289 168.827 81.2966 168.643 85.1542C168.46 88.6444 167.296 91.7672 164.418 94.0327C160.499 97.0331 154.682 98.2577 149.784 98.2577C144.885 98.2577 139.068 96.8494 135.456 93.4204C135.027 92.9918 134.782 92.6244 134.354 92.1958C133.558 91.2773 133.374 90.2976 133.803 89.1954C134.721 86.9911 135.395 84.7256 136.191 82.5212C136.436 81.8477 136.558 81.2966 137.476 81.1129Z" fill="white"/>
<path d="M185.984 89.5016H185.433C184.759 92.1958 184.269 94.5838 183.596 97.0331C183.596 97.2168 183.412 97.4005 183.228 97.5842C180.35 97.5842 177.656 97.7066 174.901 97.7066C173.615 97.7066 172.758 96.6044 173.003 95.3186C173.248 93.9103 173.554 92.4407 173.982 91.0324C177.105 79.031 180.167 67.2746 184.024 55.457C184.269 54.5385 184.82 53.4363 185.249 52.5179C185.433 52.2117 185.616 52.028 185.861 51.9668C186.106 51.8443 186.412 51.7831 186.718 51.7831C188.923 51.8443 191.127 52.1505 193.331 52.1505C194.066 52.1505 194.74 52.0892 195.413 52.028C195.658 51.9668 195.903 52.1505 196.087 52.1505L199.026 63.2946L201.292 71.8057C202.332 75.5409 203.496 79.1535 204.537 82.8886L208.088 96.9718C208.149 97.278 208.027 97.4617 207.721 97.4617H202.822C200.924 97.4617 199.087 97.4617 198.291 97.5229C198.107 97.5229 197.985 97.4005 197.924 97.2168C197.128 94.8287 196.76 91.7672 195.964 89.2567C195.291 89.1954 194.74 89.1954 194.066 89.1954C191.372 89.1954 188.678 89.5016 185.984 89.5016ZM193.821 79.5821C193.331 76.2756 191.984 69.3565 191.188 66.6011C191.188 66.4174 191.066 66.2949 190.882 66.2949C190.698 66.2949 190.576 66.4174 190.515 66.6011C189.535 70.6423 188.127 76.0307 187.453 79.7658C188.188 79.8883 189.106 79.9495 190.147 79.9495C191.617 79.9495 193.087 79.8271 193.821 79.5821Z" fill="white"/>
<path d="M213.994 97.2168C213.994 92.8693 213.871 88.9505 214.055 84.9705C214.239 81.0517 213.932 77.0716 214.177 73.0916C214.361 70.6423 214.239 66.4174 214.239 63.9681C214.055 60.7841 213.994 57.6001 213.81 54.416C213.749 53.4976 213.443 52.6403 214.361 51.7218H232.486C236.711 51.7218 239.895 52.8852 243.262 55.5794C244.671 56.7428 245.344 58.5185 245.65 60.2942C246.14 63.3558 245.895 67.4583 241.609 70.9485C241.18 71.2547 241.425 71.867 241.732 72.1731C243.262 73.5815 246.63 77.0104 247.793 79.4597C249.569 83.256 249.263 86.9911 246.936 90.6038C243.691 95.5023 238.854 97.7066 232.975 97.7066L218.096 97.278H217.484C216.749 97.278 215.953 97.3392 215.157 97.3392C214.728 97.3392 214.422 97.278 213.994 97.2168ZM224.954 78.7861C224.648 82.0314 224.77 85.1542 225.015 88.3994C225.505 88.3382 226.056 88.3382 226.546 88.3382C227.954 88.3382 229.24 88.4607 230.526 88.4607C232.792 88.4607 234.69 88.0321 235.915 85.889C237.139 83.9908 236.649 81.2966 234.751 80.1332C233.771 79.5821 232.73 79.0923 231.567 78.9086C229.853 78.6024 228.077 78.6637 226.301 78.6024C225.811 78.6024 225.383 78.6637 224.954 78.7861ZM224.954 69.2953C225.873 69.6014 226.607 69.6626 227.526 69.6626C229.485 69.6626 231.2 69.4177 233.098 68.7442C234.567 68.0706 235.241 66.7848 235.67 65.254C236.098 63.2946 234.935 61.5801 232.975 61.1515C231.69 60.9066 230.342 60.7841 229.057 60.7841C227.771 60.7841 226.546 60.8453 225.138 61.029L225.077 61.0903C225.015 61.0903 225.015 61.1515 224.954 61.1515L224.709 68.1931C224.709 68.6217 224.77 68.8666 224.954 69.2953Z" fill="white"/>
<path d="M256.224 82.3988C257.204 82.8274 257.326 83.4397 257.571 83.9295C258.735 87.0523 263.327 89.073 266.45 89.073C269.573 89.073 271.348 87.481 271.716 84.3582C272.389 79.1535 272.083 73.9488 272.022 68.7442L271.777 60.6616C271.777 58.4573 271.777 55.6407 271.838 53.4363C271.838 53.0077 271.899 52.5791 271.961 52.0892C272.022 51.9055 272.144 51.8443 272.328 51.7831C272.818 51.7219 273.675 51.7218 274.839 51.7218C276.982 51.7218 279.798 51.7831 281.207 51.7831H282.676C282.799 52.2117 282.86 52.5791 282.86 52.824L283.044 74.6836C283.044 77.8677 283.105 81.0517 283.105 84.2357C283.105 89.1342 279.186 94.2777 275.083 96.7269C272.695 97.7678 270.124 98.3189 267.491 98.3189C262.837 98.3189 256.163 96.9718 252.795 93.7266C251.509 92.4407 251.448 92.0733 252.183 90.6038C253.224 88.3382 254.142 86.0726 255.306 83.8683C255.551 83.3785 255.918 82.8886 256.224 82.3988Z" fill="white"/>
<path d="M291.127 96.9718C290.943 81.8477 291.065 67.1522 291.616 52.028H292.412C292.596 52.028 292.841 51.9668 293.025 51.9668C293.76 51.9668 294.556 52.1505 295.29 52.1505C295.964 52.1505 296.454 52.028 296.882 51.8443C296.944 51.7831 297.127 51.7831 297.311 51.7831C297.556 51.7831 297.862 51.8443 298.168 51.8443H300.801C302.454 51.8443 302.699 51.8443 302.699 53.8037C302.516 56.9877 302.577 60.1718 302.577 63.3558C302.393 72.4793 302.454 81.3578 302.454 90.4813V96.9718C302.026 97.4617 301.352 97.5229 300.679 97.5229H300.25C298.964 97.5229 297.617 97.4617 296.331 97.4617L291.923 97.2168C291.616 97.2168 291.372 97.0331 291.127 96.9718Z" fill="white"/>
<path d="M349.424 80.9904H349.852C350.097 79.7046 352.302 66.1725 353.036 60.6616C353.22 59.1921 353.71 55.3957 354.016 53.9262C354.016 53.5588 354.077 53.1302 354.2 52.6403C354.261 52.2117 354.567 51.9055 354.996 51.8443H356.465C360.262 51.8443 362.099 51.7831 366.324 51.7831C366.568 51.7831 367.303 51.8443 366.997 53.1302C366.079 56.253 365.221 59.9881 364.425 63.1721C363.384 67.3359 362.527 71.3159 361.547 75.4796L359.588 82.9499C358.547 86.9299 357.629 90.9099 356.649 94.89C356.465 95.3798 356.343 96.3595 356.159 97.0331C356.098 97.278 355.914 97.5842 355.669 97.5842C354.016 97.5842 345.995 97.5229 344.954 97.5229C343.239 97.5229 342.811 97.5229 342.321 95.5635C341.28 90.9712 340.116 86.5013 338.953 81.9089C338.524 80.6231 338.218 79.3372 337.79 77.9289C337.728 77.7452 337.606 77.684 337.422 77.684C337.239 77.684 337.116 77.7452 337.055 77.9289C335.585 82.5212 332.401 93.9103 331.422 96.7881C331.238 97.3392 330.932 97.5229 330.381 97.4617H328.421C325.972 97.4617 323.706 97.5229 321.318 97.5229H319.482C318.93 97.5229 318.624 97.278 318.502 96.8494C316.481 90.8487 308.337 58.1511 307.603 52.4566C307.541 52.028 307.786 51.7831 308.215 51.7831C309.378 51.7831 311.583 51.8443 313.236 51.8443H317.645C317.951 51.8443 318.257 51.9055 318.624 52.028C318.93 52.0892 319.114 52.3342 319.175 52.6403C319.726 56.008 320.155 59.1308 320.829 62.3149L322.91 71.9282L324.931 81.9701C324.992 82.1538 325.115 82.2763 325.298 82.2763C325.482 82.2763 325.605 82.2151 325.666 82.0314C326.829 77.9901 329.646 67.3359 330.626 62.2537L332.463 53.2526C332.707 52.028 332.891 51.9055 334.177 51.7218C335.096 51.5382 336.075 51.5994 336.994 51.5994C338.524 51.5994 339.994 51.6606 341.525 51.8443C342.505 52.028 343.178 52.3342 343.423 53.3139C343.668 54.1099 343.852 54.9059 344.035 55.7019L346.423 68.1319C346.852 70.1525 347.281 72.1731 347.77 74.1938L349.424 80.9904Z" fill="white"/>
<path d="M379.604 89.5016H379.053C378.379 92.1958 377.89 94.5838 377.216 97.0331C377.216 97.2168 377.032 97.4005 376.849 97.5842C373.971 97.5842 371.277 97.7066 368.521 97.7066C367.235 97.7066 366.378 96.6044 366.623 95.3186C366.868 93.9103 367.174 92.4407 367.603 91.0324C370.725 79.031 373.787 67.2746 377.645 55.457C377.89 54.5385 378.441 53.4363 378.869 52.5179C379.053 52.2117 379.237 52.028 379.482 51.9668C379.727 51.8443 380.033 51.7831 380.339 51.7831C382.543 51.8443 384.747 52.1505 386.952 52.1505C387.687 52.1505 388.36 52.0892 389.034 52.028C389.279 51.9668 389.524 52.1505 389.707 52.1505L392.646 63.2946L394.912 71.8057C395.953 75.5409 397.116 79.1535 398.157 82.8886L401.709 96.9718C401.77 97.278 401.647 97.4617 401.341 97.4617H396.443C394.544 97.4617 392.708 97.4617 391.912 97.5229C391.728 97.5229 391.605 97.4005 391.544 97.2168C390.748 94.8287 390.381 91.7672 389.585 89.2567C388.911 89.1954 388.36 89.1954 387.687 89.1954C384.992 89.1954 382.298 89.5016 379.604 89.5016ZM387.442 79.5821C386.952 76.2756 385.605 69.3565 384.809 66.6011C384.809 66.4174 384.686 66.2949 384.503 66.2949C384.319 66.2949 384.196 66.4174 384.135 66.6011C383.155 70.6423 381.747 76.0307 381.074 79.7658C381.808 79.8883 382.727 79.9495 383.768 79.9495C385.237 79.9495 386.707 79.8271 387.442 79.5821Z" fill="white"/>
<path d="M418.287 86.8074C418.961 86.8687 419.634 86.9299 420.308 86.9299C421.961 86.9299 423.614 86.7462 425.267 86.7462C429.86 86.7462 434.513 86.6237 439.167 86.3788C439.657 87.3585 439.779 96.3595 439.228 97.1555C433.84 97.2168 428.451 97.278 423.063 97.4617H420.92C417.92 97.4617 414.98 97.4005 411.858 97.4005C410.143 97.4005 408.429 97.3392 406.653 97.5229C406.653 96.0534 406.592 94.5226 406.592 92.9918C406.653 87.1748 406.469 81.5415 406.714 75.7245C406.898 71.5608 407.02 67.3359 406.959 63.1721C406.959 59.437 406.898 55.7631 406.714 51.8443C407.878 51.7831 409.041 51.7218 410.204 51.7218C412.592 51.7218 414.858 51.8443 417.124 51.8443C418.042 52.3954 418.165 53.1302 418.165 54.0486C418.165 60.6616 418.165 67.0297 418.226 73.6427V86.0114C418.226 86.1951 418.226 86.3788 418.287 86.8074Z" fill="white"/>
<path d="M457.578 89.5016H457.027C456.354 92.1958 455.864 94.5838 455.19 97.0331C455.19 97.2168 455.007 97.4005 454.823 97.5842C451.945 97.5842 449.251 97.7066 446.496 97.7066C445.21 97.7066 444.352 96.6044 444.597 95.3186C444.842 93.9103 445.148 92.4407 445.577 91.0324C448.7 79.031 451.761 67.2746 455.619 55.457C455.864 54.5385 456.415 53.4363 456.844 52.5179C457.027 52.2117 457.211 52.028 457.456 51.9668C457.701 51.8443 458.007 51.7831 458.313 51.7831C460.517 51.8443 462.722 52.1505 464.926 52.1505C465.661 52.1505 466.335 52.0892 467.008 52.028C467.253 51.9668 467.498 52.1505 467.682 52.1505L470.621 63.2946L472.886 71.8057C473.927 75.5409 475.091 79.1535 476.132 82.8886L479.683 96.9718C479.744 97.278 479.622 97.4617 479.316 97.4617H474.417C472.519 97.4617 470.682 97.4617 469.886 97.5229C469.702 97.5229 469.58 97.4005 469.519 97.2168C468.723 94.8287 468.355 91.7672 467.559 89.2567C466.886 89.1954 466.335 89.1954 465.661 89.1954C462.967 89.1954 460.273 89.5016 457.578 89.5016ZM465.416 79.5821C464.926 76.2756 463.579 69.3565 462.783 66.6011C462.783 66.4174 462.661 66.2949 462.477 66.2949C462.293 66.2949 462.171 66.4174 462.11 66.6011C461.13 70.6423 459.721 76.0307 459.048 79.7658C459.783 79.8883 460.701 79.9495 461.742 79.9495C463.212 79.9495 464.681 79.8271 465.416 79.5821Z" fill="white"/>
<path d="M74.968 0.939819C76.8866 0.939819 78.6659 1.94415 79.6565 3.58728L114.17 60.8373C115.218 62.576 115.218 64.7522 114.169 66.4906L96.8567 95.1898C95.8659 96.8322 94.0873 97.8363 92.1692 97.8363H22.6408C20.7159 97.8363 18.9321 96.825 17.9436 95.1732L0.776588 66.4877C-0.263072 64.7501 -0.258528 62.5803 0.788307 60.847L35.3752 3.58337C36.3664 1.94265 38.1439 0.939819 40.0608 0.939819H74.968ZM79.9328 51.5638C75.2747 51.3587 70.1276 52.3372 67.0657 55.7269C65.5347 57.4219 64.3375 59.3678 64.5198 61.6849C64.7119 63.867 65.0534 66.061 66.7375 67.765C67.9982 69.0767 69.386 70.0365 71.3088 70.5385C72.6417 70.8618 73.9124 71.3616 75.2453 71.6849C76.2848 71.8964 77.3846 71.9764 78.4338 72.0531C79.9829 72.1665 81.0903 72.8348 82.0774 73.765C83.4975 74.9532 83.6666 77.4508 81.3225 78.5892C79.9207 79.2092 78.5073 79.2865 76.9582 79.1732C73.2601 78.9026 71.6124 77.3811 69.3713 75.0492C68.621 74.3169 67.9261 73.4986 67.2258 72.7699C66.4667 72.85 66.3368 73.2464 66.1008 73.726C65.3328 75.2959 64.6611 76.9182 63.7932 78.4808C63.3843 79.264 63.4818 79.9947 64.0823 80.7162C64.4087 81.056 64.5896 81.3402 64.9162 81.6801C67.6813 84.4117 72.3543 85.7929 76.3528 86.0853C80.3513 86.3777 85.1659 85.8264 88.5256 83.8588C90.9959 82.3682 92.113 80.1458 92.4504 77.5961C92.8074 74.7766 91.9885 72.2314 90.0442 69.9662C88.2297 67.9815 85.9453 66.9106 83.4358 66.1849C81.5131 65.683 79.4603 65.5781 77.4778 65.2074C76.6881 65.0142 75.9475 64.8246 75.2209 64.4554C74.0076 63.8698 73.3462 61.9236 73.8215 60.9193C74.7158 58.9973 76.7076 58.5561 78.8567 58.7133C81.6057 58.9145 85.8539 61.1166 87.1555 63.2445C87.9181 63.1196 88.3818 62.9723 88.6711 62.4515L91.5315 57.6918C91.8074 57.3508 91.7336 56.9838 91.4104 56.599C90.7699 55.7392 89.9659 55.0479 88.9494 54.5219C87.7362 53.9363 86.5722 53.354 85.259 52.7611C83.8524 52.0711 81.5822 51.6845 79.9328 51.5638ZM27.4729 52.7924C27.4069 52.7924 27.343 52.8178 27.2961 52.8636C25.9505 54.1838 24.826 55.7636 23.9231 57.6019C22.4018 60.6607 21.6409 64.3584 21.6408 68.6947C21.6409 73.0312 22.4016 76.7495 23.9231 79.847C24.8451 81.7006 25.9985 83.292 27.3821 84.6195C27.4287 84.6639 27.492 84.6888 27.5569 84.6888H36.2141C36.5186 84.6881 36.6597 83.9362 36.3996 83.7797C35.9929 83.5366 35.2602 83.2518 34.8879 82.9252C33.4327 81.6475 32.3077 79.808 31.5139 77.4076C30.7532 75.007 30.3733 72.1019 30.3733 68.6947C30.3733 65.249 30.7533 62.3256 31.5139 59.9252C32.3077 57.5245 33.4326 55.7043 34.8879 54.4652C35.2988 54.1045 36.0735 53.7944 36.5266 53.5355C36.7831 53.3887 36.6686 52.7929 36.3723 52.7924H27.4729ZM42.2746 52.7924C41.9778 52.7929 41.8624 53.3969 42.1184 53.5453C42.5634 53.8021 42.9849 54.1092 43.3811 54.4652C44.8357 55.7043 45.9439 57.5248 46.7043 59.9252C47.4646 62.3256 47.8449 65.2492 47.8449 68.6947C47.8449 72.1019 47.4648 75.007 46.7043 77.4076C45.9438 79.808 44.8359 81.6475 43.3811 82.9252C43.0256 83.2446 42.6498 83.5245 42.2551 83.764C41.9955 83.9227 42.1393 84.6885 42.4446 84.6888H50.6789C50.7441 84.6887 50.8071 84.6635 50.8537 84.6185C52.2245 83.2911 53.3716 81.7004 54.2932 79.847C55.8472 76.7495 56.6242 73.0312 56.6242 68.6947C56.6242 64.3586 55.8469 60.6606 54.2932 57.6019C53.3909 55.7643 52.2726 54.1845 50.9397 52.8646C50.8928 52.8182 50.8283 52.7925 50.7619 52.7924H42.2746ZM52.8449 14.6166C51.4815 14.6166 50.0728 14.7023 48.6213 14.7455C48.0497 14.7455 47.6099 14.8754 47.1262 15.4359V17.6361C47.2581 19.4043 47.3898 21.2166 47.4338 22.9847C47.5218 25.8312 47.5657 28.6782 47.5657 31.5677C47.5657 34.5006 47.5657 37.3478 47.5217 40.2806L47.3459 45.4994C47.346 45.8874 47.4337 46.2331 47.5657 46.7074C49.9407 46.7936 52.3166 46.8363 54.6916 46.8363C55.2633 46.362 55.3078 46.0595 55.3518 45.5853L55.5276 41.6176L55.6594 36.8734C55.7034 36.2266 55.6594 35.6648 55.7033 35.0179C55.7034 34.5437 55.7473 34.0686 55.7912 33.5082H57.9475C59.7069 37.6918 61.9937 42.5231 63.7532 46.6205C63.7972 46.8357 63.9289 46.9232 64.0608 46.9232C64.9415 46.9231 69.2953 46.6645 71.4065 46.6644H71.8469C72.0663 46.707 72.2421 46.534 72.1985 46.2328C72.1545 45.9311 71.9787 45.715 71.803 45.4135C71.3192 44.5079 70.3514 42.9551 69.8674 42.0492C68.9877 40.3672 68.1074 38.6843 67.2717 37.0023C66.612 35.6223 65.6052 34.1984 65.2092 32.6459C66.9245 31.9558 68.9925 31.1364 69.8723 29.4115C71.2358 26.8668 71.8512 24.2345 71.1916 21.431C69.7839 15.3931 63.5764 14.6166 58.2541 14.6166H52.8449ZM56.3196 21.0004C57.7708 21.0004 58.963 21.043 60.4143 21.1293C61.9974 21.2588 62.9218 22.1217 63.1858 23.7172C63.3613 24.7522 62.4376 26.1333 61.2502 26.6078C60.8986 26.8232 60.5462 26.9095 60.2385 26.9095C58.6112 26.9527 57.1989 26.9525 55.3957 26.9525V21.2162C55.7475 21.0868 56.0117 21.0004 56.3196 21.0004Z" fill="white"/>
</svg>
