<svg width="230" height="687" viewBox="0 0 230 687" fill="none" xmlns="http://www.w3.org/2000/svg">
<path d="M141.733 2.51489C140.656 2.54122 139.606 2.91051 138.707 3.58828C96.5299 35.3835 63.243 78.0548 38.8459 131.602C11.5751 191.456 -1.03554 263.314 1.014 347.176C3.06354 431.038 19.1693 502.194 49.3314 560.645C76.9592 614.184 113.338 655.881 158.468 685.735C159.385 686.341 160.429 686.645 161.483 686.619L223.747 685.097C230.484 684.933 232.249 671.465 226.114 668.199C219.046 664.436 212.156 660.279 205.445 655.726C164.92 627.497 132.913 587.072 109.424 534.452C85.9161 481.083 73.2748 418.084 71.4997 345.454C69.7247 272.823 79.2826 209.656 100.173 155.951C121.046 101.498 151.04 59.5579 190.156 30.1318C196.256 25.4236 202.532 21.0669 208.984 17.0615C214.816 13.4406 212.401 0.787785 205.76 0.950088L141.733 2.51489Z" fill="#2EC06D"/>
</svg>
