<svg width="229" height="687" viewBox="0 0 229 687" fill="none" xmlns="http://www.w3.org/2000/svg">
<path d="M6.98085 2.20792C0.329681 2.37047 -1.48345 15.1546 4.51365 18.5184C11.0592 22.1898 17.4322 26.2175 23.6327 30.6013C64.2149 58.0796 95.9538 98.5107 118.85 151.894C142.381 204.513 155.034 267.138 156.809 339.768C158.584 412.399 149.014 475.941 128.1 530.396C107.821 584.085 78.095 626.019 38.9219 656.195C32.5767 661.038 26.0183 665.5 19.2467 669.581C13.2829 673.175 15.7259 686.581 22.4748 686.416L83.6022 684.922C84.6473 684.897 85.6677 684.549 86.5499 683.911C130.813 651.871 165.462 608.432 190.496 553.595C217.821 493.739 230.459 421.88 228.409 338.019C226.36 254.157 210.227 183.001 180.01 124.552C152.972 72.2507 117.305 31.2583 73.008 1.5747C72.0815 0.953846 71.0229 0.642762 69.9544 0.668877L6.98085 2.20792Z" fill="#2EC06D"/>
</svg>
